<?xml version="1.0" encoding="UTF-8" standalone="no"?><!-- Generator: Gravit.io --><svg xmlns="http://www.w3.org/2000/svg" xmlns:xlink="http://www.w3.org/1999/xlink" style="isolation:isolate" viewBox="0 0 566.929 96.661" width="566.929pt" height="96.661pt"><defs><clipPath id="_clipPath_Zvs8bj2DtQMuGedHardWCo6DDCWhnTmX"><rect width="566.929" height="96.661"/></clipPath></defs><g clip-path="url(#_clipPath_Zvs8bj2DtQMuGedHardWCo6DDCWhnTmX)"><g><path d="M 14.79 0 L 200.987 0 C 209.114 0 215.713 6.599 215.713 14.726 L 215.713 81.944 C 215.713 90.072 209.114 96.67 200.987 96.67 L 14.79 96.67 C 6.662 96.67 0.064 90.072 0.064 81.944 L 0.064 14.726 C 0.064 6.599 6.662 0 14.79 0 Z" style="stroke:none;fill:#51DDAA;stroke-miterlimit:10;"/><path d=" M 26.233 62.897 C 25.175 61.945 24.214 60.895 23.37 59.749 C 22.578 58.681 21.909 57.528 21.37 56.312 C 20.825 55.076 20.416 53.782 20.149 52.456 C 19.857 50.994 19.708 49.507 19.708 48.02 C 19.708 46.533 19.857 45.046 20.149 43.591 C 20.416 42.265 20.825 40.971 21.37 39.735 C 21.909 38.518 22.578 37.366 23.37 36.291 C 24.214 35.151 25.175 34.095 26.233 33.149 C 27.259 32.229 28.369 31.405 29.557 30.696 C 30.752 29.982 32.018 29.383 33.33 28.9 C 34.745 28.385 36.206 28.005 37.699 27.761 C 39.407 27.484 41.134 27.342 42.861 27.342 C 44.588 27.342 46.315 27.484 48.016 27.761 C 49.51 28.005 50.977 28.385 52.399 28.907 C 53.717 29.383 54.983 29.988 56.191 30.709 C 57.385 31.424 58.509 32.248 59.548 33.175 C 60.619 34.134 61.593 35.196 62.45 36.349 C 63.242 37.417 63.924 38.576 64.463 39.793 C 65.014 41.022 65.424 42.31 65.69 43.63 C 65.982 45.078 66.131 46.546 66.131 48.02 C 66.131 49.507 65.982 50.994 65.69 52.456 C 65.424 53.775 65.014 55.069 64.463 56.305 C 63.924 57.522 63.248 58.681 62.456 59.749 C 61.606 60.895 60.638 61.951 59.58 62.897 C 58.548 63.818 57.431 64.636 56.243 65.344 C 55.035 66.058 53.769 66.663 52.451 67.14 C 51.029 67.655 49.555 68.041 48.062 68.279 C 46.341 68.563 44.601 68.704 42.861 68.704 C 41.134 68.704 39.407 68.563 37.699 68.286 C 36.206 68.041 34.745 67.661 33.33 67.14 C 32.018 66.663 30.752 66.065 29.557 65.344 C 28.369 64.636 27.259 63.818 26.233 62.897 L 26.233 62.897 Z  M 63.651 66.535 C 64.969 65.337 66.157 64.011 67.203 62.576 C 68.17 61.249 68.995 59.827 69.65 58.327 C 70.319 56.801 70.819 55.211 71.144 53.576 C 71.507 51.747 71.689 49.887 71.689 48.02 C 71.689 46.14 71.507 44.267 71.144 42.419 C 70.819 40.784 70.319 39.194 69.644 37.668 C 68.988 36.175 68.17 34.759 67.209 33.445 C 66.17 32.029 64.988 30.722 63.683 29.538 C 62.411 28.392 61.028 27.362 59.554 26.473 C 58.074 25.578 56.509 24.832 54.879 24.233 C 53.113 23.583 51.289 23.106 49.432 22.797 C 47.263 22.443 45.062 22.263 42.861 22.263 C 40.686 22.263 38.517 22.443 36.368 22.797 C 34.524 23.1 32.713 23.583 30.966 24.233 C 29.337 24.832 27.778 25.585 26.298 26.48 C 24.818 27.375 23.435 28.411 22.156 29.57 C 20.851 30.754 19.662 32.068 18.624 33.49 C 17.656 34.81 16.845 36.226 16.189 37.72 C 15.52 39.246 15.02 40.829 14.696 42.458 C 14.332 44.293 14.15 46.153 14.15 48.02 C 14.15 49.874 14.332 51.722 14.689 53.537 C 15.014 55.166 15.514 56.75 16.182 58.275 C 16.838 59.775 17.663 61.198 18.624 62.531 C 19.675 63.966 20.87 65.305 22.188 66.509 C 23.474 67.687 24.87 68.736 26.363 69.651 C 27.843 70.552 29.408 71.318 31.031 71.923 C 32.778 72.573 34.583 73.056 36.42 73.365 C 38.55 73.719 40.706 73.899 42.861 73.899 C 45.049 73.899 47.224 73.719 49.38 73.359 C 51.23 73.056 53.048 72.573 54.808 71.917 C 56.438 71.311 58.009 70.552 59.496 69.651 C 60.976 68.749 62.372 67.706 63.651 66.535 L 63.651 66.535 Z " fill-rule="evenodd" fill="rgb(0,0,0)"/><path d=" M 129.126 22.266 L 134.951 22.266 L 134.951 73.858 L 129.126 73.858 L 93.831 31.939 L 93.831 73.858 L 88.028 73.858 L 88.028 22.266 L 93.831 22.266 L 129.126 64.185 L 129.126 22.266 Z " fill="rgb(0,0,0)"/><path d=" M 151.316 73.904 L 151.316 22.268 L 199.506 22.268 L 199.506 27.599 L 157.218 27.599 L 157.218 43.701 L 184.988 43.701 L 184.988 48.902 L 157.218 48.902 L 157.218 68.62 L 201.856 68.62 L 201.856 73.904 L 151.316 73.904 Z " fill-rule="evenodd" fill="rgb(0,0,0)"/><path d=" M 358.468 58.385 C 357.981 59.035 357.475 59.672 356.936 60.283 C 356.202 61.132 355.416 61.93 354.579 62.683 C 353.813 63.372 353.001 64.015 352.151 64.607 C 351.345 65.173 350.501 65.682 349.625 66.138 C 348.748 66.595 347.839 66.994 346.911 67.335 C 345.937 67.689 344.95 67.985 343.944 68.223 C 342.866 68.474 341.769 68.661 340.665 68.783 C 339.457 68.918 338.237 68.982 337.016 68.982 C 335.289 68.982 333.562 68.841 331.854 68.564 C 330.341 68.32 328.848 67.934 327.407 67.412 C 326.043 66.923 324.732 66.312 323.491 65.585 C 322.238 64.852 321.063 64.002 319.972 63.056 C 318.843 62.078 317.823 60.984 316.914 59.801 C 316.083 58.713 315.376 57.536 314.804 56.294 C 314.239 55.052 313.811 53.752 313.532 52.42 C 313.233 50.972 313.077 49.499 313.077 48.025 C 313.077 46.552 313.233 45.079 313.532 43.637 C 313.804 42.299 314.233 40.999 314.798 39.757 C 315.363 38.515 316.07 37.338 316.901 36.25 C 317.797 35.067 318.817 33.979 319.94 33.001 C 321.024 32.055 322.193 31.206 323.44 30.479 C 324.68 29.745 325.991 29.134 327.348 28.645 C 328.796 28.124 330.296 27.738 331.815 27.493 C 333.536 27.21 335.276 27.069 337.016 27.069 C 338.139 27.069 339.262 27.126 340.379 27.242 C 341.424 27.345 342.457 27.506 343.483 27.725 C 344.457 27.931 345.418 28.188 346.359 28.497 C 347.281 28.799 348.183 29.153 349.06 29.559 C 349.975 29.977 350.865 30.453 351.722 30.981 C 352.534 31.483 353.313 32.036 354.053 32.641 C 354.78 33.233 355.462 33.87 356.105 34.552 C 356.455 34.925 356.793 35.311 357.117 35.704 L 361.331 32.75 C 360.909 32.229 360.461 31.714 360 31.225 C 359.241 30.427 358.436 29.674 357.578 28.98 C 356.708 28.265 355.78 27.609 354.819 27.011 C 353.8 26.374 352.735 25.801 351.638 25.299 C 350.586 24.81 349.501 24.379 348.398 24.012 C 347.255 23.633 346.093 23.317 344.918 23.066 C 343.678 22.803 342.418 22.603 341.152 22.481 C 339.782 22.339 338.399 22.268 337.016 22.268 C 334.789 22.268 332.568 22.449 330.367 22.809 C 328.478 23.118 326.621 23.6 324.822 24.257 C 323.154 24.862 321.544 25.621 320.024 26.528 C 318.505 27.429 317.07 28.478 315.752 29.649 C 314.395 30.852 313.162 32.184 312.077 33.638 C 311.09 34.957 310.246 36.386 309.571 37.885 C 308.889 39.403 308.383 40.993 308.052 42.621 C 307.682 44.442 307.493 46.295 307.493 48.148 C 307.493 50.001 307.682 51.854 308.052 53.675 C 308.383 55.303 308.896 56.886 309.577 58.398 C 310.253 59.897 311.09 61.313 312.077 62.625 C 313.162 64.067 314.395 65.392 315.746 66.582 C 317.07 67.747 318.492 68.777 320.011 69.671 C 321.537 70.572 323.141 71.331 324.81 71.929 C 326.614 72.579 328.471 73.062 330.361 73.371 C 332.562 73.725 334.789 73.905 337.016 73.905 C 338.509 73.905 340.009 73.821 341.496 73.66 C 342.84 73.512 344.177 73.281 345.502 72.978 C 346.742 72.689 347.956 72.322 349.151 71.891 C 350.307 71.473 351.43 70.977 352.514 70.424 C 353.631 69.851 354.702 69.208 355.728 68.493 C 356.734 67.799 357.689 67.039 358.585 66.216 C 359.5 65.379 360.357 64.478 361.15 63.526 C 361.721 62.838 362.266 62.117 362.779 61.377 L 358.468 58.385 L 358.468 58.385 Z " fill-rule="evenodd" fill="rgb(255,255,255)"/><path d=" M 411.787 53.724 L 400.113 30.701 L 388.296 53.73 L 384.614 60.906 L 377.992 73.97 L 371.96 73.97 L 398.178 22.333 L 401.911 22.333 L 428.363 73.97 L 422.207 73.97 L 415.526 60.9 L 411.787 53.724 L 411.787 53.724 Z " fill-rule="evenodd" fill="rgb(255,255,255)"/><path d=" M 452.834 44.857 L 477.454 44.857 C 478.253 44.857 479.058 44.812 479.857 44.709 C 480.513 44.632 481.155 44.496 481.792 44.316 C 482.415 44.136 483.019 43.897 483.597 43.608 C 484.123 43.343 484.61 43.028 485.064 42.661 C 485.505 42.3 485.908 41.888 486.259 41.431 C 486.609 40.986 486.901 40.497 487.135 39.981 C 487.382 39.427 487.57 38.848 487.687 38.255 C 487.817 37.572 487.888 36.883 487.888 36.194 C 487.888 35.499 487.817 34.803 487.687 34.127 C 487.57 33.534 487.382 32.954 487.129 32.4 C 486.895 31.892 486.603 31.402 486.252 30.958 C 485.902 30.513 485.499 30.107 485.051 29.747 C 484.616 29.399 484.149 29.096 483.649 28.845 C 483.097 28.568 482.519 28.336 481.921 28.162 C 481.272 27.969 480.61 27.827 479.935 27.744 C 479.11 27.641 478.279 27.589 477.454 27.589 L 477.454 27.589 L 446.945 27.589 L 446.945 73.97 L 440.926 73.97 L 440.926 22.333 L 477.454 22.333 C 478.889 22.333 480.318 22.443 481.74 22.643 C 482.856 22.81 483.96 23.068 485.038 23.428 C 485.947 23.731 486.823 24.118 487.668 24.575 C 488.427 24.993 489.141 25.483 489.797 26.037 C 490.479 26.61 491.096 27.261 491.628 27.963 C 492.148 28.652 492.589 29.393 492.94 30.172 C 493.316 31.022 493.595 31.911 493.777 32.826 C 493.992 33.933 494.102 35.061 494.102 36.194 C 494.102 37.076 494.024 37.965 493.868 38.841 C 493.732 39.634 493.518 40.413 493.232 41.173 C 492.946 41.914 492.596 42.635 492.18 43.311 C 491.739 44.039 491.232 44.722 490.661 45.359 C 490.102 45.991 489.492 46.57 488.83 47.092 C 488.187 47.601 487.499 48.058 486.771 48.445 C 486.018 48.85 485.233 49.185 484.415 49.449 C 483.506 49.752 482.571 49.978 481.623 50.126 C 481.188 50.197 480.824 50.473 480.642 50.866 C 480.461 51.266 480.493 51.723 480.727 52.09 L 494.712 73.97 L 488.447 73.97 L 472.884 50.235 L 472.884 50.235 L 452.834 50.235 L 452.834 44.857 Z " fill="rgb(255,255,255)"/><path d=" M 509.938 27.135 L 515.46 27.135 L 515.46 68.185 L 532.024 68.185 C 539.79 68.185 547.408 65.181 552.895 59.688 C 558.387 54.195 561.335 47.191 561.335 39.426 C 561.335 31.667 558.387 24.213 552.895 18.72 C 547.408 13.227 539.79 9.978 532.024 9.978 L 301.965 9.978 L 262.396 86.357 L 220.985 4.457 L 227.426 4.457 L 262.396 73.474 L 298.285 4.457 L 532.024 4.457 C 541.335 4.457 550.118 8.001 556.708 14.591 C 563.292 21.174 566.993 30.115 566.993 39.426 C 566.993 48.743 563.292 57.353 556.708 63.937 C 550.118 70.527 541.335 73.904 532.024 73.904 L 509.938 73.904 L 509.938 27.135 Z " fill="rgb(255,255,255)"/></g></g></svg>